<?xml version="1.0" standalone="no"?>
<!DOCTYPE svg PUBLIC "-//W3C//DTD SVG 20010904//EN"
 "http://www.w3.org/TR/2001/REC-SVG-20010904/DTD/svg10.dtd">
<svg version="1.0" xmlns="http://www.w3.org/2000/svg"
 width="224.000000pt" height="224.000000pt" viewBox="0 0 224.000000 224.000000"
 preserveAspectRatio="xMidYMid meet">
<metadata>
Created by potrace 1.11, written by Peter Selinger 2001-2013
</metadata>
<g transform="translate(0.000000,224.000000) scale(0.100000,-0.100000)"
fill="#000000" stroke="none">
<path d="M1010 2215 c-8 -2 -49 -9 -90 -15 -89 -15 -241 -68 -319 -112 -362
-205 -571 -558 -571 -968 0 -465 281 -872 710 -1030 119 -44 206 -61 345 -67
545 -24 1009 344 1127 892 7 33 12 125 12 205 0 199 -26 316 -111 489 -186
378 -572 615 -993 610 -52 -1 -102 -3 -110 -4z m-429 -775 c40 -22 10 -120
-37 -120 -25 0 -13 53 14 65 25 11 28 21 8 28 -51 20 -222 -145 -283 -271 -58
-121 -58 -207 0 -242 44 -27 93 -25 254 11 232 53 330 43 428 -44 l40 -36 -53
19 c-68 26 -122 26 -155 0 -22 -18 -26 -18 -38 -4 -42 51 -155 58 -314 19
-159 -39 -212 -32 -270 37 -25 30 -27 37 -23 107 4 92 35 164 107 255 76 95
209 184 279 185 13 1 32 -4 43 -9z m967 -1 c12 0 46 2 75 3 44 2 63 -3 120
-35 37 -21 67 -41 67 -46 0 -4 -10 -17 -23 -29 l-23 -22 -52 36 c-47 31 -120
64 -142 64 -4 0 -11 -17 -15 -37 -14 -80 -91 -173 -141 -173 -30 0 -38 19 -29
67 5 26 23 53 65 95 32 32 55 58 52 58 -26 0 -119 -70 -178 -133 -113 -118
-197 -284 -180 -352 9 -36 41 -50 77 -34 43 17 107 95 123 148 24 79 -20 83
-58 5 -11 -21 -23 -41 -28 -42 -5 -2 -22 -15 -39 -29 -16 -14 -32 -24 -34 -22
-8 9 34 112 56 135 49 53 110 69 129 35 16 -30 12 -61 -14 -116 -65 -139 -204
-218 -270 -152 -70 70 -24 230 114 395 89 106 241 200 300 186 14 -3 35 -5 48
-5z m436 -29 c-1 -14 -4 -33 -9 -43 -6 -15 -4 -16 21 -7 15 6 50 27 77 46 l49
35 -19 -31 c-25 -44 -78 -86 -140 -112 -29 -12 -53 -27 -53 -33 0 -15 -131
-151 -197 -204 -42 -34 -56 -53 -69 -97 -31 -98 2 -80 92 48 74 105 156 163
188 131 4 -4 23 -6 43 -4 44 3 44 3 -34 -127 -30 -51 -52 -96 -48 -100 4 -4
26 15 50 43 58 66 69 51 15 -20 -66 -85 -128 -116 -150 -75 -11 20 -11 20 -39
-1 -34 -25 -61 -22 -76 7 l-11 22 -27 -24 c-66 -56 -108 -14 -83 82 18 71 1
73 -43 5 -33 -53 -103 -111 -132 -111 -38 0 -49 12 -49 53 0 59 44 140 108
198 57 52 95 68 121 52 17 -11 20 -59 6 -101 -12 -35 20 -17 36 21 27 65 129
205 200 273 91 88 117 105 149 102 20 -2 25 -8 24 -28z m-1384 -125 c8 -9 11
-30 7 -55 -3 -22 -2 -40 2 -40 4 0 34 23 66 50 33 28 70 53 82 56 30 8 61 -4
68 -26 7 -22 -18 -75 -39 -83 -33 -13 -36 34 -3 56 20 15 20 16 3 16 -11 1
-37 -18 -59 -41 -69 -73 -102 -178 -56 -178 23 0 73 48 168 159 75 87 102 102
171 94 30 -3 57 -7 59 -9 1 -1 -27 -53 -64 -114 -37 -61 -64 -114 -61 -117 3
-4 28 18 56 47 50 56 78 64 42 13 -64 -90 -160 -149 -176 -108 -5 14 -9 14
-36 0 -44 -23 -74 -16 -78 17 l-3 27 -47 -30 c-78 -49 -132 -33 -132 39 1 20
7 48 15 62 17 29 18 40 6 40 -4 0 -25 -25 -45 -55 -39 -59 -107 -115 -139
-115 -27 0 -57 28 -57 54 0 29 53 135 87 173 37 42 100 83 128 83 12 0 28 -7
35 -15z m563 -25 c-13 -22 -25 -30 -45 -30 -31 0 -34 10 -16 40 9 13 24 20 46
20 l33 0 -18 -30z m812 -395 c0 -10 -8 -19 -17 -21 -21 -3 -32 11 -25 31 8 19
42 12 42 -10z"/>
<path d="M1471 1351 c-22 -22 -47 -54 -56 -71 -16 -32 -14 -60 4 -60 17 0 74
64 92 105 35 76 20 86 -40 26z"/>
<path d="M1905 1369 c-72 -66 -223 -279 -197 -279 5 0 49 42 98 92 86 90 88
93 61 96 l-27 3 20 30 c16 21 30 29 51 29 23 0 32 6 40 27 18 47 4 48 -46 2z"/>
<path d="M1532 1113 c-22 -9 -34 -41 -22 -63 16 -30 38 -24 48 13 13 47 5 63
-26 50z"/>
<path d="M1852 1066 c-45 -49 -96 -141 -86 -157 11 -19 54 32 123 149 38 65
20 70 -37 8z"/>
<path d="M1445 997 c-26 -46 -32 -81 -14 -92 12 -8 89 69 89 88 0 11 -34 47
-45 47 -2 0 -16 -20 -30 -43z"/>
<path d="M541 1251 c-26 -26 -26 -33 -1 -56 23 -21 27 -19 39 23 13 43 -9 62
-38 33z"/>
<path d="M921 1213 c-70 -82 -120 -198 -65 -152 16 13 70 90 113 162 34 55 3
49 -48 -10z"/>
<path d="M465 1147 c-57 -99 -12 -127 56 -34 l30 41 -23 18 c-13 10 -26 18
-30 18 -4 0 -19 -20 -33 -43z"/>
</g>
</svg>
